{"title":"Real Time With Bill Maher - 2013-10-25 - Richard Dawkins","uid":9101711,"size":407167107,"categoryP":"video","categoryS":"tv_shows","magnet":"?xt=urn:btih:3d6624e4378e83e530b29f649c792ac53786be50&amp;dn=Real+Time+With+Bill+Maher+-+2013-10-25+-+Richard+Dawkins&amp;tr=udp%3A%2F%2Ftracker.openbittorrent.com%3A80&amp;tr=udp%3A%2F%2Fopen.demonii.com%3A1337&amp;tr=udp%3A%2F%2Ftracker.coppersurfer.tk%3A6969&amp;tr=udp%3A%2F%2Fexodus.desync.com%3A6969","seeders":1,"leechers":2,"uploader":"nephthys1987","files":1,"time":1382782721,"description":"Real Time With Bill Maher\nNEW\nS11, E31\n\nMaajid Nawaz, co-founder of the think tank Quilliam; evolutionary biologist Richard Dawkins; filmmaker Michael Moore; author Valerie Plame; the Rev. Al Sharpton, talk-show host.\n\nAired Oct 25, 2013\n\n\nSpecs\n----------------\nGeneral\nComplete name                    : rtwbm-2013-10-25.mp4\nFormat                           : MPEG-4\nFormat profile                   : Base Media / Version 2\nCodec ID                         : mp42\nFile size                        : 388 MiB\nDuration                         : 56mn 7s\nOverall bit rate                 : 967 Kbps\nEncoded date                     : UTC 2013-10-26 06:32:31\nTagged date                      : UTC 2013-10-26 06:32:51\n\nVideo\nID                               : 1\nFormat                           : AVC\nFormat/Info                      : Advanced Video Codec\nFormat profile                   : &lt;a class=&quot;__cf_email__&quot; href=&quot;/cdn-cgi/l/email-protection&quot; data-cfemail=&quot;94d9f5fdfad4d8a0baa4&quot;&gt;[email&amp;#160;protected]&lt;/a&gt;&lt;script cf-hash='f9e31' type=&quot;text/javascript&quot;&gt;\n/* &lt;![CDATA[ */!function(){try{var t=&quot;currentScript&quot;in document?document.currentScript:function(){for(var t=document.getElementsByTagName(&quot;script&quot;),e=t.length;e--;)if(t[e].getAttribute(&quot;cf-hash&quot;))return t[e]}();if(t&amp;&amp;t.previousSibling){var e,r,n,i,c=t.previousSibling,a=c.getAttribute(&quot;data-cfemail&quot;);if(a){for(e=&quot;&quot;,r=parseInt(a.substr(0,2),16),n=2;a.length-n;n+=2)i=parseInt(a.substr(n,2),16)^r,e+=String.fromCharCode(i);e=document.createTextNode(e),c.parentNode.replaceChild(e,c)}}}catch(u){}}();/* ]]&gt; */&lt;/script&gt;\nFormat settings, CABAC           : Yes\nFormat settings, ReFrames        : 4 frames\nCodec ID                         : avc1\nCodec ID/Info                    : Advanced Video Coding\nDuration                         : 56mn 7s\nBit rate mode                    : Variable\nBit rate                         : 578 Kbps\nWidth                            : 720 pixels\nHeight                           : 402 pixels\nDisplay aspect ratio             : 16:9\nFrame rate mode                  : Variable\nFrame rate                       : 29.970 fps\nMinimum frame rate               : 29.910 fps\nMaximum frame rate               : 100.000 fps\nColor space                      : YUV\nChroma subsampling               : 4:2:0\nBit depth                        : 8 bits\nScan type                        : Progressive\nBits/(Pixel*Frame)               : 0.067\nStream size                      : 232 MiB (60%)\nEncoded date                     : UTC 2013-10-26 06:32:31\nTagged date                      : UTC 2013-10-26 06:32:51\nColor primaries                  : BT.709-5, BT.1361, IEC 61966-2-4, SMPTE RP177\nTransfer characteristics         : BT.709-5, BT.1361\nMatrix coefficients              : BT.709-5, BT.1361, IEC 61966-2-4 709, SMPTE RP177\n\nAudio\nID                               : 2\nFormat                           : AC-3\nFormat/Info                      : Audio Coding 3\nMode extension                   : CM (complete main)\nCodec ID                         : ac-3\nDuration                         : 56mn 7s\nDuration_FirstFrame              : 86ms\nBit rate mode                    : Constant\nBit rate                         : 384 Kbps\nChannel(s)                       : 6 channels\nChannel positions                : Front: L C R, Side: L R, LFE\nSampling rate                    : 48.0 KHz\nBit depth                        : 16 bits\nCompression mode                 : Lossy\nStream size                      : 154 MiB (40%)\nEncoded date                     : UTC 2013-10-26 06:32:31\nTagged date                      : UTC 2013-10-26 06:32:51","torrent":{"xt":"urn:btih:3d6624e4378e83e530b29f649c792ac53786be50","amp;dn":"Real+Time+With+Bill+Maher+-+2013-10-25+-+Richard+Dawkins","amp;tr":["udp%3A%2F%2Ftracker.openbittorrent.com%3A80","udp%3A%2F%2Fopen.demonii.com%3A1337","udp%3A%2F%2Ftracker.coppersurfer.tk%3A6969","udp%3A%2F%2Fexodus.desync.com%3A6969"],"infoHash":"3d6624e4378e83e530b29f649c792ac53786be50","infoHashBuffer":{"type":"Buffer","data":[61,102,36,228,55,142,131,229,48,178,159,100,156,121,42,197,55,134,190,80]},"announce":[],"urlList":[]}}